HIERARCHY
ROOT joint_0
{
	OFFSET 0.000000 0.000000 0.000000
	CHANNELS 6 Xposition Yposition Zposition Zrotation Yrotation Xrotation 
	JOINT joint_1
	{
		OFFSET 13.542969 -4.074463 123.986084
		CHANNELS 3 Zrotation Yrotation Xrotation
		JOINT joint_2
		{
			OFFSET -0.108154 -3.018066 113.860962
			CHANNELS 3 Zrotation Yrotation Xrotation
			JOINT joint_3
			{
				OFFSET -1.139648 -3.876465 113.702026
				CHANNELS 3 Zrotation Yrotation Xrotation
				JOINT joint_4
				{
					OFFSET 13.593506 -8.582153 160.876953
					CHANNELS 3 Zrotation Yrotation Xrotation
					JOINT joint_5
					{
						OFFSET 26.480957 -11.565674 94.427979
						CHANNELS 3 Zrotation Yrotation Xrotation
						End Site
						{
							OFFSET 0.000000 0.000000 0.000000
						}
					}
				}
				JOINT joint_6
				{
					OFFSET 3.003662 -39.658691 88.713989
					CHANNELS 3 Zrotation Yrotation Xrotation
					JOINT joint_7
					{
						OFFSET -25.253906 -162.506348 -28.477051
						CHANNELS 3 Zrotation Yrotation Xrotation
						JOINT joint_8
						{
							OFFSET 23.083252 -8.502686 -295.281982
							CHANNELS 3 Zrotation Yrotation Xrotation
							JOINT joint_9
							{
								OFFSET 20.205566 -32.167908 -263.458008
								CHANNELS 3 Zrotation Yrotation Xrotation
								End Site
								{
									OFFSET 0.000000 0.000000 0.000000
								}
							}
						}
					}
				}
				JOINT joint_10
				{
					OFFSET 12.313232 30.012939 91.642944
					CHANNELS 3 Zrotation Yrotation Xrotation
					JOINT joint_11
					{
						OFFSET 31.960205 162.667969 -19.398926
						CHANNELS 3 Zrotation Yrotation Xrotation
						JOINT joint_12
						{
							OFFSET 51.325195 40.249023 -289.038086
							CHANNELS 3 Zrotation Yrotation Xrotation
							JOINT joint_13
							{
								OFFSET 70.170898 60.433594 -249.556030
								CHANNELS 3 Zrotation Yrotation Xrotation
								End Site
								{
									OFFSET 0.000000 0.000000 0.000000
								}
							}
						}
					}
				}
			}
		}
	}
	JOINT joint_14
	{
		OFFSET -15.093262 -91.803833 -113.326904
		CHANNELS 3 Zrotation Yrotation Xrotation
		JOINT joint_15
		{
			OFFSET 2.288818 -12.306763 -494.206055
			CHANNELS 3 Zrotation Yrotation Xrotation
			JOINT joint_16
			{
				OFFSET -54.691650 0.383423 -424.447006
				CHANNELS 3 Zrotation Yrotation Xrotation
				JOINT joint_17
				{
					OFFSET 202.154297 -21.791382 -80.181999
					CHANNELS 3 Zrotation Yrotation Xrotation
					End Site
					{
						OFFSET 0.000000 0.000000 0.000000
					}
				}
			}
		}
	}
	JOINT joint_18
	{
		OFFSET 10.704102 91.957275 -113.713013
		CHANNELS 3 Zrotation Yrotation Xrotation
		JOINT joint_19
		{
			OFFSET 0.427490 1.374878 -494.359924
			CHANNELS 3 Zrotation Yrotation Xrotation
			JOINT joint_20
			{
				OFFSET -53.071777 2.769531 -424.643028
				CHANNELS 3 Zrotation Yrotation Xrotation
				JOINT joint_21
				{
					OFFSET 200.264648 -28.253052 -82.862999
					CHANNELS 3 Zrotation Yrotation Xrotation
					End Site
					{
						OFFSET 0.000000 0.000000 0.000000
					}
				}
			}
		}
	}
}
MOTION
Frames: 15
Frame Time: 0.016667
-3353.185791 1373.983643 1145.911011 8.137035 -1.358269 0.360653 -0.305899 -0.551664 -0.385181 -0.284900 0.075985 0.040450 -0.291800 -0.103130 -0.063519 0.464133 1.101836 -1.189680 0.000000 0.000000 0.000000 0.988484 -0.921987 0.657561 -0.120546 -1.057566 2.783487 -0.490547 3.149753 -0.769833 0.000000 0.000000 0.000000 0.700631 0.061283 1.163344 -0.201966 0.655453 -2.395971 0.327649 0.841230 0.431844 0.000000 0.000000 0.000000 -0.387555 2.606844 0.587522 -0.231141 -3.729838 -0.422662 -0.265401 1.454848 0.051785 0.000000 0.000000 0.000000 -0.880187 1.193237 0.001996 -0.884839 -1.154310 0.058982 -0.863006 3.732770 0.169894 0.000000 0.000000 0.000000 
-3353.422119 1373.794556 1145.875977 8.154848 -1.369983 0.373179 -0.302535 -0.555111 -0.373293 -0.281528 0.073264 0.035232 -0.288211 -0.101692 -0.059928 0.464500 1.103422 -1.190312 0.000000 0.000000 0.000000 1.003415 -0.978994 0.655972 -0.154655 -1.103526 2.761795 -0.538722 3.426889 -0.870020 0.000000 0.000000 0.000000 0.704136 0.052256 1.146141 -0.213151 0.654873 -2.464968 0.330819 0.852670 0.433143 0.000000 0.000000 0.000000 -0.390415 2.587940 0.587388 -0.235425 -3.697928 -0.424021 -0.270296 1.469553 0.051433 0.000000 0.000000 0.000000 -0.888746 1.193114 -0.002541 -0.893405 -1.159946 0.060165 -0.870884 3.728022 0.165964 0.000000 0.000000 0.000000 
-3353.613037 1373.602905 1145.833984 8.177347 -1.379080 0.386542 -0.297984 -0.562260 -0.367782 -0.276841 0.069960 0.029895 -0.283285 -0.100470 -0.055491 0.463565 1.106424 -1.185515 0.000000 0.000000 0.000000 1.034552 -1.057395 0.660758 -0.201253 -1.165310 2.741400 -0.605202 3.803815 -1.009192 0.000000 0.000000 0.000000 0.710809 0.043423 1.138074 -0.225074 0.657102 -2.540396 0.334102 0.863271 0.435520 0.000000 0.000000 0.000000 -0.394466 2.567484 0.587648 -0.241020 -3.662949 -0.426621 -0.276625 1.483882 0.050473 0.000000 0.000000 0.000000 -0.899349 1.191563 -0.007077 -0.904005 -1.163720 0.061085 -0.880699 3.718901 0.160614 0.000000 0.000000 0.000000 
-3353.690674 1373.364136 1145.770996 8.220353 -1.381028 0.401717 -0.281136 -0.574577 -0.376362 -0.259559 0.069315 0.028951 -0.265988 -0.101583 -0.053820 0.458512 1.097273 -1.170724 0.000000 0.000000 0.000000 1.152339 -1.182782 0.698237 -0.269086 -1.260821 2.788459 -0.722745 4.365544 -1.411411 0.000000 0.000000 0.000000 0.701117 0.022232 1.158686 -0.241437 0.659714 -2.644085 0.338718 0.872089 0.443954 0.000000 0.000000 0.000000 -0.404451 2.548869 0.590938 -0.252418 -3.630752 -0.430759 -0.288537 1.491370 0.046564 0.000000 0.000000 0.000000 -0.914739 1.186777 -0.010672 -0.919375 -1.167354 0.061997 -0.894975 3.704102 0.152616 0.000000 0.000000 0.000000 
-3353.697998 1373.059204 1145.672974 8.259652 -1.389044 0.423811 -0.259404 -0.589115 -0.397788 -0.237137 0.073125 0.033403 -0.243782 -0.103482 -0.054919 0.455034 1.088115 -1.160966 0.000000 0.000000 0.000000 1.390887 -1.376711 0.783962 -0.370052 -1.410366 2.960868 -0.920992 5.197153 -2.228380 0.000000 0.000000 0.000000 0.674900 -0.002651 1.203044 -0.257784 0.667683 -2.759670 0.346692 0.889123 0.457057 0.000000 0.000000 0.000000 -0.413541 2.538803 0.589036 -0.262726 -3.594997 -0.431808 -0.298998 1.492101 0.042501 0.000000 0.000000 0.000000 -0.928762 1.193191 -0.020425 -0.933363 -1.169839 0.067881 -0.907235 3.677778 0.143823 0.000000 0.000000 0.000000 
-3353.591797 1372.707275 1145.553955 8.319627 -1.389749 0.447700 -0.225199 -0.608820 -0.433775 -0.201960 0.078651 0.044868 -0.209027 -0.106949 -0.060835 0.447886 1.067392 -1.142445 0.000000 0.000000 0.000000 1.715292 -1.623131 0.914937 -0.508534 -1.591597 3.179167 -1.182551 6.217678 -3.298732 0.000000 0.000000 0.000000 0.631475 -0.040030 1.276141 -0.278491 0.675931 -2.902965 0.355911 0.904949 0.475339 0.000000 0.000000 0.000000 -0.428741 2.530447 0.590081 -0.279014 -3.562043 -0.434168 -0.315183 1.485816 0.035415 0.000000 0.000000 0.000000 -0.947841 1.196147 -0.029208 -0.952390 -1.172269 0.073868 -0.924203 3.646148 0.132334 0.000000 0.000000 0.000000 
-3353.177246 1372.316162 1145.442017 8.490298 -1.338686 0.460186 -0.150042 -0.643818 -0.501534 -0.125251 0.082335 0.069264 -0.133031 -0.115959 -0.072781 0.420450 0.993159 -1.073764 0.000000 0.000000 0.000000 2.111518 -1.895386 1.081748 -0.685660 -1.759532 3.301407 -1.472561 7.276408 -4.364163 0.000000 0.000000 0.000000 0.565097 -0.128126 1.411687 -0.321349 0.665775 -3.144926 0.360013 0.886041 0.504698 0.000000 0.000000 0.000000 -0.475246 2.506667 0.620459 -0.326401 -3.557421 -0.453447 -0.362475 1.466999 0.014660 0.000000 0.000000 0.000000 -0.995128 1.148989 -0.014947 -0.999604 -1.177512 0.064051 -0.969852 3.624730 0.110423 0.000000 0.000000 0.000000 
-3352.529541 1371.827637 1145.334961 8.766827 -1.224482 0.455006 -0.018439 -0.694347 -0.613073 0.008427 0.079538 0.117804 -0.000305 -0.128043 -0.099771 0.372498 0.868808 -0.952552 0.000000 0.000000 0.000000 2.641047 -2.229776 1.281569 -0.908035 -1.924856 3.235766 -1.781203 8.282749 -5.354424 0.000000 0.000000 0.000000 0.446473 -0.291996 1.655123 -0.391839 0.635638 -3.543587 0.371967 0.845610 0.580101 0.000000 0.000000 0.000000 -0.551662 2.449289 0.688482 -0.403990 -3.580055 -0.484282 -0.439351 1.434506 -0.019282 0.000000 0.000000 0.000000 -1.067545 1.030613 0.034420 -1.071906 -1.176639 0.033922 -1.041874 3.613757 0.079084 0.000000 0.000000 0.000000 
-3351.571045 1371.300415 1145.234985 9.153881 -1.057646 0.440170 0.154096 -0.759212 -0.756235 0.183611 0.073580 0.184440 0.173715 -0.142506 -0.138219 0.306865 0.686266 -0.793670 0.000000 0.000000 0.000000 3.243243 -2.593468 1.504470 -1.193365 -2.074768 3.050547 -2.136614 9.344436 -6.298058 0.000000 0.000000 0.000000 0.303511 -0.506408 1.957652 -0.484254 0.586012 -4.034367 0.375772 0.770787 0.656015 0.000000 0.000000 0.000000 -0.659577 2.375274 0.785280 -0.512774 -3.631120 -0.531888 -0.547377 1.389514 -0.066905 0.000000 0.000000 0.000000 -1.168353 0.861030 0.106060 -1.172515 -1.178863 -0.012207 -1.142701 3.614335 0.037467 0.000000 0.000000 0.000000 
-3349.881592 1370.916748 1145.177979 9.752425 -0.825210 0.425138 0.352620 -0.845054 -0.915174 0.385777 0.072527 0.255002 0.374166 -0.170474 -0.173092 0.211150 0.387191 -0.581798 0.000000 0.000000 0.000000 3.721218 -2.850620 1.716917 -1.550707 -2.131141 2.873761 -2.557533 10.602485 -7.078265 0.000000 0.000000 0.000000 0.208100 -0.732927 2.208481 -0.598621 0.502453 -4.498554 0.320511 0.597360 0.607573 0.000000 0.000000 0.000000 -0.827867 2.317566 0.911181 -0.679931 -3.738461 -0.625472 -0.715489 1.329238 -0.139975 0.000000 0.000000 0.000000 -1.329180 0.652972 0.185900 -1.333050 -1.212954 -0.078676 -1.302602 3.643099 -0.024608 0.000000 0.000000 0.000000 
-3347.277832 1370.544312 1145.203003 10.618970 -0.500176 0.402369 0.589603 -0.968600 -1.085580 0.628261 0.085230 0.320154 0.613906 -0.221879 -0.201729 0.063977 -0.096601 -0.276517 0.000000 0.000000 0.000000 4.008404 -2.950786 1.925861 -2.020426 -2.059948 2.786898 -3.094391 12.249772 -7.624822 0.000000 0.000000 0.000000 0.204169 -0.993388 2.355888 -0.736752 0.337800 -4.881845 0.190746 0.336112 0.374480 0.000000 0.000000 0.000000 -1.070082 2.286121 1.107428 -0.917137 -3.957272 -0.796092 -0.957579 1.267846 -0.242448 0.000000 0.000000 0.000000 -1.567274 0.376625 0.307266 -1.570659 -1.273862 -0.187959 -1.540527 3.709470 -0.113618 0.000000 0.000000 0.000000 
-3343.943115 1370.315552 1145.270020 11.696140 -0.108047 0.387730 0.851367 -1.108118 -1.267708 0.896451 0.102702 0.382589 0.878962 -0.283787 -0.229258 -0.114171 -0.714291 0.062722 0.000000 0.000000 0.000000 4.187406 -2.951484 2.132407 -2.589115 -1.893272 2.707764 -3.722278 14.055000 -7.941267 0.000000 0.000000 0.000000 0.256440 -1.268029 2.442880 -0.897490 0.131552 -5.215414 -0.007566 0.008217 -0.029554 0.000000 0.000000 0.000000 -1.372578 2.265402 1.334898 -1.212167 -4.229617 -1.014587 -1.258786 1.195831 -0.369464 0.000000 0.000000 0.000000 -1.864818 0.057828 0.438491 -1.867538 -1.365274 -0.323387 -1.837280 3.809647 -0.222133 0.000000 0.000000 0.000000 
-3339.999268 1370.813232 1145.302002 12.918938 0.284189 0.424956 1.080862 -1.219648 -1.449560 1.131168 0.111182 0.442660 1.111225 -0.335218 -0.256346 -0.278364 -1.342333 0.327805 0.000000 0.000000 0.000000 4.295331 -2.871285 2.293876 -3.146781 -1.654733 2.561592 -4.318741 15.541056 -8.068440 0.000000 0.000000 0.000000 0.331415 -1.455601 2.508129 -1.078367 -0.001441 -5.499705 -0.294112 -0.429914 -0.613269 0.000000 0.000000 0.000000 -1.725609 2.255167 1.472402 -1.558969 -4.417524 -1.215676 -1.607607 1.074527 -0.520699 0.000000 0.000000 0.000000 -2.202085 -0.203960 0.470773 -2.204764 -1.530538 -0.432989 -2.167731 3.941241 -0.340115 0.000000 0.000000 0.000000 
-3335.424805 1372.307617 1145.282959 14.335228 0.669269 0.541513 1.254809 -1.300708 -1.633480 1.308809 0.107613 0.498088 1.287420 -0.370267 -0.279841 -0.423681 -1.977753 0.502114 0.000000 0.000000 0.000000 4.330087 -2.689816 2.387692 -3.637933 -1.339301 2.375384 -4.832860 16.584891 -8.057889 0.000000 0.000000 0.000000 0.422847 -1.514597 2.549598 -1.296023 -0.024444 -5.701904 -0.714213 -1.025195 -1.451065 0.000000 0.000000 0.000000 -2.134063 2.293635 1.460331 -1.960789 -4.563714 -1.359655 -2.002064 0.906730 -0.695077 0.000000 0.000000 0.000000 -2.588191 -0.373428 0.344755 -2.592523 -1.832569 -0.489948 -2.536829 4.141855 -0.464282 0.000000 0.000000 0.000000 
-3330.241455 1374.529419 1145.229004 15.899301 1.048207 0.712494 1.397720 -1.355091 -1.805346 1.453899 0.096557 0.540062 1.431768 -0.395124 -0.299546 -0.556100 -2.613341 0.610988 0.000000 0.000000 0.000000 4.294855 -2.414123 2.436019 -4.076080 -0.949231 2.156692 -5.279728 17.321278 -7.882627 0.000000 0.000000 0.000000 0.539158 -1.486990 2.553370 -1.550747 0.013011 -5.790975 -1.243007 -1.690544 -2.487092 0.000000 0.000000 0.000000 -2.594508 2.350645 1.361634 -2.416330 -4.626517 -1.479528 -2.446291 0.696075 -0.893829 0.000000 0.000000 0.000000 -3.014064 -0.476665 0.133360 -3.021466 -2.210598 -0.533968 -2.939865 4.379862 -0.597085 0.000000 0.000000 0.000000 
